<?xml version="1.0" encoding="UTF-8"?>
<svg width="235.08" height="188" version="1.1" viewBox="0 0 235.08 188" xml:space="preserve" xmlns="http://www.w3.org/2000/svg">
<style type="text/css">
	.st0{fill:none;stroke:#000000;stroke-width:4;stroke-linecap:round;stroke-linejoin:round;}
</style>
<title>I-WritingForWeb-140x175</title>
<path class="st0" d="m2.3798 176.26v-164.52c0-5.1785 5.9714-9.3612 13.365-9.3612h203.45c7.3932 0 13.365 4.1827 13.365 9.3612v164.52c0 5.1785-5.9714 9.3612-13.365 9.3612h-203.45c-7.3931-0.19918-13.365-4.3818-13.365-9.3612z"/>
<line class="st0" x1="48.587" x2="48.587" y1="185.42" y2="2.3798"/>
<line class="st0" x1="232.7" x2="50.009" y1="139.81" y2="139.81"/>
<line class="st0" x1="232.7" x2="50.009" y1="94" y2="94"/>
<line class="st0" x1="232.7" x2="50.009" y1="48.09" y2="48.09"/>
<line class="st0" x1="94.368" x2="94.368" y1="185.42" y2="2.3798"/>
<line class="st0" x1="140.72" x2="140.72" y1="185.42" y2="2.3798"/>
<line class="st0" x1="186.5" x2="186.5" y1="185.42" y2="2.3798"/>
</svg>
